<?xml version="1.0" standalone="no"?>
<!DOCTYPE svg PUBLIC "-//W3C//DTD SVG 20010904//EN"
 "http://www.w3.org/TR/2001/REC-SVG-20010904/DTD/svg10.dtd">
<svg version="1.0" xmlns="http://www.w3.org/2000/svg"
 width="512.000000pt" height="512.000000pt" viewBox="0 0 512.000000 512.000000"
 preserveAspectRatio="xMidYMid meet">

<g transform="translate(0.000000,512.000000) scale(0.100000,-0.100000)"
fill="#000000" stroke="none">
<path d="M284 5096 c-21 -18 -28 -32 -28 -61 0 -73 -3 -72 520 -159 258 -42
477 -80 487 -82 13 -4 17 -16 17 -55 l0 -49 -65 0 c-74 0 -110 -15 -148 -60
-38 -45 -47 -90 -47 -237 l0 -133 -26 0 c-103 0 -278 -84 -373 -180 -121 -121
-179 -252 -188 -421 -10 -174 48 -341 162 -466 76 -84 156 -134 313 -195 72
-28 132 -54 132 -57 0 -3 -97 -132 -216 -286 -219 -284 -258 -344 -291 -451
-16 -54 -18 -103 -18 -574 l0 -515 33 -67 c93 -190 324 -251 498 -133 54 37
78 65 115 135 l24 45 5 461 5 461 255 332 c140 182 259 331 265 331 6 0 73
-25 150 -56 95 -37 160 -57 203 -61 l62 -6 0 -128 0 -129 -74 0 c-61 0 -83 -5
-127 -28 -89 -46 -139 -137 -139 -254 l0 -58 -107 0 c-130 0 -172 -18 -210
-89 -20 -39 -23 -58 -23 -163 0 -131 9 -166 56 -210 43 -40 75 -48 183 -48
l98 0 6 -78 c8 -120 57 -196 157 -241 44 -20 63 -21 610 -21 l565 0 50 24 c98
45 155 142 155 263 l0 53 100 0 c112 0 150 11 192 56 41 44 48 75 48 203 0
104 -3 123 -23 162 -38 71 -80 89 -209 89 l-108 0 0 58 c0 117 -50 208 -139
254 -44 23 -66 28 -127 28 l-74 0 0 129 0 128 63 6 c42 4 108 24 205 62 79 31
148 55 152 53 5 -2 124 -152 264 -334 l255 -332 3 -458 3 -459 24 -45 c37 -70
61 -98 115 -135 178 -121 412 -55 505 144 l26 56 0 515 c0 471 -2 520 -18 574
-33 107 -72 167 -291 451 -119 154 -216 282 -216 285 0 3 61 29 135 58 157 62
233 110 310 195 185 204 217 519 78 756 -56 95 -154 189 -249 238 -79 41 -179
73 -228 73 l-26 0 0 133 c0 147 -9 192 -47 237 -38 45 -74 60 -148 60 l-65 0
0 49 c0 39 4 51 18 55 9 2 228 40 486 82 523 87 520 86 520 159 0 29 -7 43
-28 61 -15 13 -36 24 -47 24 -11 0 -222 -34 -469 -75 -247 -41 -456 -75 -465
-75 -11 0 -15 11 -15 46 0 37 -5 51 -29 75 -31 31 -55 36 -94 18 -31 -14 -47
-48 -47 -99 0 -29 -4 -40 -15 -40 -9 0 -218 34 -465 75 -247 41 -458 75 -469
75 -11 0 -32 -11 -47 -24 -21 -18 -28 -32 -28 -61 0 -73 -3 -72 520 -159 258
-42 477 -80 487 -82 13 -4 17 -16 17 -55 l0 -49 -65 0 c-72 0 -106 -13 -146
-57 -40 -43 -49 -85 -49 -229 l0 -134 -850 0 -850 0 0 128 c0 144 -10 195 -48
235 -41 44 -75 57 -147 57 l-65 0 0 49 c0 39 4 51 18 55 9 2 228 40 486 82
523 87 520 86 520 159 0 29 -7 43 -28 61 -15 13 -36 24 -47 24 -11 0 -222 -34
-469 -75 -247 -41 -456 -75 -465 -75 -11 0 -15 11 -15 40 0 51 -16 85 -47 99
-39 18 -63 13 -94 -18 -24 -24 -29 -38 -29 -75 0 -35 -4 -46 -15 -46 -9 0
-218 34 -465 75 -247 41 -458 75 -469 75 -11 0 -32 -11 -47 -24z m1256 -701
l0 -125 -175 0 -175 0 0 125 0 125 175 0 175 0 0 -125z m2390 0 l0 -125 -175
0 -175 0 0 125 0 125 175 0 175 0 0 -125z m185 -305 c201 -30 363 -184 400
-383 l7 -37 -605 0 -605 0 -6 28 c-12 46 -73 129 -120 162 -98 67 -80 65 -626
65 -551 0 -532 2 -630 -70 -50 -37 -104 -110 -115 -157 l-7 -28 -604 0 c-510
0 -604 2 -604 14 0 38 45 151 81 206 68 101 195 181 315 199 86 12 3032 13
3119 1z m-1048 -357 c39 -18 78 -71 88 -120 16 -77 -43 -170 -120 -192 -55
-15 -895 -15 -950 0 -77 22 -136 115 -120 192 10 48 49 101 86 120 30 15 88
17 507 17 421 0 478 -2 509 -17z m-1244 -287 c35 -76 89 -131 165 -168 l67
-33 505 0 505 0 67 33 c76 37 128 91 165 170 l24 52 590 0 c486 0 589 -2 589
-13 0 -26 -61 -135 -100 -180 -22 -24 -61 -59 -88 -75 -26 -17 -320 -137 -652
-267 l-605 -235 -494 0 -494 0 -606 236 c-333 129 -627 249 -654 266 -26 17
-66 51 -88 77 -40 44 -99 152 -99 179 0 9 125 12 589 12 l590 0 24 -54z m-433
-636 c74 -28 138 -55 142 -58 4 -4 -106 -153 -243 -332 -138 -179 -255 -335
-260 -348 -5 -13 -9 -225 -9 -473 0 -493 1 -481 -60 -533 -61 -51 -144 -53
-209 -6 -67 47 -66 37 -69 543 -2 282 1 480 7 515 17 93 65 168 299 472 202
261 226 288 245 281 12 -5 83 -32 157 -61z m2749 -230 c230 -296 274 -367 291
-462 7 -35 10 -228 8 -515 -3 -456 -3 -458 -26 -494 -72 -116 -234 -109 -298
13 -11 22 -14 109 -14 477 0 248 -4 460 -9 473 -5 13 -122 169 -260 348 -137
178 -248 327 -245 330 13 13 320 127 326 122 4 -4 106 -135 227 -292z m-1321
-147 l-3 -128 -255 0 -255 0 -3 128 -3 127 261 0 261 0 -3 -127z m310 -323
c12 -11 24 -31 27 -43 3 -12 5 -183 3 -380 l-3 -359 -28 -24 -28 -24 -539 0
-539 0 -28 24 -28 24 -3 359 c-2 197 0 368 3 380 3 12 15 32 27 43 21 20 33
20 568 20 535 0 547 0 568 -20z m-1338 -405 l0 -85 -85 0 -85 0 0 85 0 85 85
0 85 0 0 -85z m1710 0 l0 -85 -85 0 -85 0 0 85 0 85 85 0 85 0 0 -85z"/>
<path d="M2472 1947 c-48 -15 -127 -90 -147 -139 -41 -99 -12 -225 67 -293
167 -143 420 -29 421 190 0 35 -8 78 -18 103 -21 52 -100 124 -153 140 -47 14
-124 14 -170 -1z m140 -177 c32 -24 39 -59 22 -99 -24 -56 -108 -65 -141 -15
-53 82 43 174 119 114z"/>
<path d="M1593 1051 c-50 -32 -93 -66 -96 -76 -22 -56 17 -119 74 -119 38 0
201 99 212 129 14 35 7 76 -18 100 -38 39 -71 32 -172 -34z"/>
<path d="M3355 1085 c-28 -27 -34 -80 -12 -108 6 -9 196 -136 422 -282 348
-226 415 -265 446 -265 69 0 104 81 57 134 -13 14 -205 142 -427 285 -293 189
-412 261 -433 261 -17 0 -39 -10 -53 -25z"/>
<path d="M2522 930 c-49 -20 -52 -50 -52 -462 0 -345 2 -386 18 -418 33 -66
111 -66 144 0 16 32 18 73 18 418 0 418 -3 442 -55 462 -31 12 -42 12 -73 0z"/>
<path d="M699 474 c-261 -168 -486 -319 -501 -335 -36 -38 -36 -73 1 -110 38
-37 65 -37 132 4 167 102 917 592 932 609 9 11 17 36 17 55 0 42 -40 83 -80
83 -19 0 -174 -95 -501 -306z"/>
<path d="M4546 319 c-32 -25 -36 -85 -8 -117 9 -11 81 -61 159 -111 157 -100
186 -109 228 -66 28 27 33 79 12 107 -8 9 -80 60 -161 112 -158 103 -184 111
-230 75z"/>
</g>
</svg>
