<?xml version="1.0" standalone="no"?>
<!DOCTYPE svg PUBLIC "-//W3C//DTD SVG 20010904//EN"
 "http://www.w3.org/TR/2001/REC-SVG-20010904/DTD/svg10.dtd">
<svg version="1.0" xmlns="http://www.w3.org/2000/svg"
 width="512.000000pt" height="512.000000pt" viewBox="0 0 512.000000 512.000000"
 preserveAspectRatio="xMidYMid meet">

<g transform="translate(0.000000,512.000000) scale(0.100000,-0.100000)"
fill="#000000" stroke="none">
<path d="M1466 5104 c-178 -43 -334 -196 -381 -375 -11 -41 -15 -123 -15 -330
0 -255 1 -277 18 -292 27 -24 85 -22 108 4 17 19 19 44 24 303 5 264 6 284 27
329 48 104 128 175 235 209 57 17 116 18 1077 18 1122 0 1072 3 1175 -63 96
-61 166 -184 166 -293 0 -49 -4 -60 -40 -105 -52 -66 -105 -177 -124 -259 -22
-93 -20 -249 4 -344 22 -88 76 -196 126 -254 l34 -40 2 -1170 c3 -1134 4
-1171 22 -1191 25 -27 86 -29 109 -3 16 17 17 89 17 835 l0 817 116 0 c141 0
191 12 245 58 69 59 79 92 79 272 l0 155 66 13 c317 60 564 361 564 687 0 257
-155 508 -382 619 -123 61 -199 79 -323 79 -110 0 -219 -24 -305 -68 -27 -14
-53 -25 -59 -25 -5 0 -12 17 -16 38 -21 114 -142 267 -261 330 -122 64 -84 62
-1219 61 -854 -1 -1040 -3 -1089 -15z m3114 -494 c167 -48 305 -188 366 -370
26 -76 26 -234 0 -310 -25 -73 -59 -140 -91 -178 l-25 -30 -60 59 -59 59 29
48 c90 144 71 325 -45 450 -32 34 -77 70 -112 87 -53 28 -67 30 -163 30 -93 0
-112 -3 -162 -27 -79 -37 -142 -98 -181 -177 -30 -61 -32 -73 -32 -167 0 -97
2 -104 37 -173 l37 -72 -59 -59 c-66 -66 -62 -66 -114 17 -49 79 -76 181 -76
285 0 159 50 280 159 389 148 148 346 198 551 139z m-72 -316 c176 -73 183
-327 12 -414 -56 -28 -105 -33 -163 -16 -104 31 -167 113 -167 219 0 95 43
167 123 206 51 25 141 28 195 5z m-98 -587 c36 -1 86 5 112 12 26 7 59 10 73
7 26 -7 115 -87 115 -104 0 -16 -118 -63 -198 -79 -63 -13 -92 -14 -159 -5
-91 12 -216 59 -221 83 -3 18 54 77 98 100 27 15 34 15 73 2 23 -9 71 -16 107
-16z m-289 -257 c63 -29 167 -60 201 -60 16 0 18 -12 18 -144 0 -195 4 -191
-162 -191 l-123 0 -3 213 c-1 116 -1 212 2 212 2 0 32 -13 67 -30z"/>
<path d="M2089 4801 c-34 -35 -36 -59 -8 -95 l20 -26 459 0 459 0 20 26 c28
36 26 60 -8 95 l-29 29 -442 0 -442 0 -29 -29z"/>
<path d="M1870 4284 c-111 -29 -208 -119 -250 -231 -31 -82 -26 -205 12 -285
48 -104 149 -182 266 -207 29 -6 145 -11 259 -11 l206 0 73 -70 c71 -67 76
-70 124 -70 48 0 53 3 124 70 l73 70 206 0 c114 0 230 5 259 11 117 25 218
103 266 207 38 80 43 203 12 285 -43 114 -139 202 -255 232 -86 22 -1291 21
-1375 -1z m1393 -167 c69 -41 101 -94 105 -177 5 -77 -17 -132 -71 -182 -55
-50 -105 -58 -365 -58 l-234 0 -69 -67 -69 -66 -69 66 -69 67 -234 0 c-260 0
-310 8 -365 58 -99 91 -98 262 3 338 71 54 59 54 749 51 l640 -2 48 -28z"/>
<path d="M1933 3974 c-20 -20 -24 -31 -19 -57 13 -68 6 -67 431 -67 372 0 383
1 409 21 33 26 36 79 6 109 -19 19 -33 20 -410 20 l-391 0 -26 -26z"/>
<path d="M2946 3979 c-34 -27 -35 -71 -1 -104 22 -23 32 -25 118 -25 114 0
141 14 141 75 0 61 -27 75 -139 75 -78 0 -96 -3 -119 -21z"/>
<path d="M1087 3862 c-16 -17 -17 -89 -17 -829 l0 -811 -137 -4 c-151 -4 -189
-15 -245 -75 -50 -52 -58 -88 -58 -255 l0 -153 -66 -13 c-230 -44 -434 -218
-518 -443 -127 -340 28 -719 357 -875 106 -49 186 -67 302 -67 110 0 219 24
305 68 27 14 53 25 59 25 5 0 12 -17 16 -38 21 -114 142 -267 261 -330 122
-64 85 -62 1214 -62 1126 0 1088 -2 1213 61 77 39 182 144 220 220 52 104 57
141 57 435 0 250 -1 272 -18 287 -27 24 -85 22 -108 -4 -17 -19 -19 -44 -24
-298 -5 -259 -6 -279 -27 -324 -48 -104 -128 -175 -235 -209 -57 -17 -116 -18
-1077 -18 -1122 0 -1072 -3 -1175 63 -96 61 -166 184 -166 293 0 49 4 60 40
105 52 66 105 177 124 259 9 36 16 110 16 166 0 164 -46 304 -139 422 l-41 51
-2 1165 c-3 1129 -4 1165 -22 1185 -25 27 -86 29 -109 3z m-19 -2009 c1 -117
1 -213 -2 -213 -2 0 -32 13 -67 30 -63 29 -167 60 -201 60 -16 0 -18 12 -18
145 0 142 1 147 25 171 24 24 29 25 142 22 l118 -3 3 -212z m-195 -293 c166
-51 308 -200 361 -379 21 -72 21 -220 0 -292 -19 -64 -57 -141 -91 -186 l-25
-32 -58 60 -58 59 36 71 c35 68 37 76 37 173 0 94 -2 106 -33 168 -115 234
-421 285 -605 101 -58 -58 -95 -130 -110 -216 -13 -79 7 -176 52 -248 l29 -47
-59 -60 -58 -61 -26 31 c-39 47 -74 121 -96 206 -33 131 -21 238 42 369 117
245 397 365 662 283z m-107 -305 c101 -30 164 -113 164 -218 0 -134 -93 -227
-225 -227 -134 0 -229 94 -229 225 0 109 71 199 179 226 46 11 57 10 111 -6z
m-181 -580 c51 -18 181 -19 232 -1 32 11 45 12 70 1 35 -15 103 -80 103 -98 0
-26 -133 -77 -240 -91 -89 -12 -265 28 -320 72 l-21 17 32 38 c17 20 47 46 67
57 21 10 37 19 37 19 0 1 18 -6 40 -14z"/>
<path d="M1896 3218 c-11 -16 -16 -46 -16 -104 l0 -81 -57 -34 c-45 -26 -66
-47 -92 -91 l-34 -58 -81 0 c-101 0 -126 -14 -126 -69 0 -59 25 -75 126 -80
l84 -3 0 -124 0 -124 -79 0 c-95 0 -131 -20 -131 -74 0 -59 18 -70 117 -76
l88 -5 0 -125 0 -125 -88 -5 c-99 -6 -117 -17 -117 -76 0 -54 36 -74 131 -74
l79 0 0 -124 0 -124 -84 -3 c-101 -5 -126 -21 -126 -80 0 -55 25 -69 126 -69
l81 0 34 -57 c26 -45 47 -66 92 -92 l57 -34 0 -81 c0 -101 14 -126 69 -126 59
0 75 25 80 126 l3 84 124 0 124 0 0 -79 c0 -95 20 -131 74 -131 59 0 70 18 76
117 l5 88 125 0 125 0 5 -88 c6 -99 17 -117 76 -117 54 0 74 36 74 131 l0 79
124 0 124 0 3 -84 c5 -101 21 -126 80 -126 55 0 69 25 69 127 l0 82 50 27 c51
28 83 62 114 122 l17 32 84 0 c99 0 125 16 125 73 0 55 -28 71 -126 76 l-84 3
0 124 0 124 79 0 c95 0 131 20 131 74 0 59 -18 70 -117 76 l-88 5 0 125 0 125
88 5 c99 6 117 17 117 76 0 54 -36 74 -131 74 l-79 0 0 124 0 124 84 3 c101 5
126 21 126 80 0 55 -25 69 -126 69 l-81 0 -34 58 c-26 44 -47 65 -91 91 l-58
34 0 81 c0 101 -14 126 -69 126 -59 0 -75 -25 -80 -126 l-3 -84 -124 0 -124 0
0 79 c0 95 -20 131 -74 131 -59 0 -70 -18 -76 -117 l-5 -88 -125 0 -125 0 -5
88 c-6 99 -17 117 -76 117 -54 0 -74 -36 -74 -131 l0 -79 -124 0 -124 0 -3 84
c-5 101 -21 126 -80 126 -28 0 -42 -6 -53 -22z m1346 -365 l28 -27 0 -655 0
-655 -27 -28 -27 -28 -656 0 -656 0 -27 28 -27 28 0 654 0 654 27 28 27 28
655 0 655 0 28 -27z"/>
<path d="M2361 2573 c-23 -22 -58 -105 -165 -388 -75 -198 -136 -368 -136
-378 0 -26 45 -67 72 -67 40 0 65 27 94 100 l27 70 165 -2 164 -3 24 -65 c27
-71 53 -100 91 -100 29 0 73 42 73 70 0 21 -248 689 -276 742 -27 53 -89 62
-133 21z m113 -382 c25 -68 46 -125 46 -127 0 -2 -45 -4 -100 -4 -80 0 -100 3
-100 14 0 27 93 257 100 249 4 -4 28 -64 54 -132z"/>
<path d="M2885 2575 l-25 -24 0 -381 0 -381 25 -24 c13 -14 36 -25 50 -25 14
0 37 11 50 25 l25 24 0 381 0 381 -25 24 c-13 14 -36 25 -50 25 -14 0 -37 -11
-50 -25z"/>
<path d="M2280 530 c-38 -38 -22 -100 31 -119 43 -15 455 -15 498 0 53 19 69
81 31 119 -19 19 -33 20 -280 20 -247 0 -261 -1 -280 -20z"/>
</g>
</svg>
