<?xml version="1.0" standalone="no"?>
<!DOCTYPE svg PUBLIC "-//W3C//DTD SVG 20010904//EN"
 "http://www.w3.org/TR/2001/REC-SVG-20010904/DTD/svg10.dtd">
<svg version="1.0" xmlns="http://www.w3.org/2000/svg"
 width="512.000000pt" height="512.000000pt" viewBox="0 0 512.000000 512.000000"
 preserveAspectRatio="xMidYMid meet">

<g transform="translate(0.000000,512.000000) scale(0.100000,-0.100000)"
fill="#000000" stroke="none">
<path d="M4480 4960 l0 -80 80 0 80 0 0 80 0 80 -80 0 -80 0 0 -80z"/>
<path d="M1600 4867 c-49 -16 -133 -102 -148 -153 -7 -24 -12 -100 -12 -178
l0 -136 1280 0 1280 0 0 136 c0 163 -10 200 -67 264 -77 86 8 80 -1217 79
-758 -1 -1091 -4 -1116 -12z m1280 -227 l0 -80 -320 0 -320 0 0 80 0 80 320 0
320 0 0 -80z m320 0 l0 -80 -80 0 -80 0 0 80 0 80 80 0 80 0 0 -80z"/>
<path d="M4480 4391 l0 -329 -30 -12 c-68 -28 -130 -129 -130 -210 0 -124 116
-240 240 -240 124 0 240 116 240 240 0 81 -62 182 -130 210 l-30 12 0 329 0
329 -80 0 -80 0 0 -329z"/>
<path d="M1440 2560 l0 -1680 1280 0 1280 0 0 240 0 240 -80 0 -80 0 0 -160 0
-160 -1120 0 -1120 0 0 1520 0 1520 1120 0 1120 0 0 -240 0 -240 80 0 80 0 0
320 0 320 -1280 0 -1280 0 0 -1680z"/>
<path d="M1760 2560 l0 -1360 960 0 960 0 0 93 0 93 -82 24 c-213 61 -420 203
-557 380 -169 218 -250 469 -238 733 l6 117 -444 0 -445 0 0 560 0 560 800 0
800 0 0 -116 c0 -106 2 -116 18 -111 9 2 45 13 79 23 l63 19 0 173 0 172 -960
0 -960 0 0 -1360z m880 -160 l0 -80 -360 0 -360 0 0 80 0 80 360 0 360 0 0
-80z m0 -320 l0 -80 -360 0 -360 0 0 80 0 80 360 0 360 0 0 -80z m0 -320 l0
-80 -360 0 -360 0 0 80 0 80 360 0 360 0 0 -80z m0 -320 l0 -80 -360 0 -360 0
0 80 0 80 360 0 360 0 0 -80z"/>
<path d="M919 3503 c-23 -95 -24 -96 -64 -114 -22 -10 -47 -19 -55 -18 -8 0
-51 22 -95 49 l-80 49 -126 -126 -127 -125 49 -82 c27 -44 49 -88 49 -96 0 -8
-9 -33 -19 -55 -18 -40 -19 -41 -114 -64 l-97 -23 0 -178 0 -178 97 -23 c95
-23 96 -24 114 -64 10 -22 19 -47 19 -55 0 -8 -22 -52 -49 -96 l-49 -82 127
-125 126 -126 83 51 c81 49 85 50 123 39 21 -6 44 -18 52 -26 8 -8 25 -55 37
-104 l22 -91 169 0 169 0 0 171 0 171 -42 -9 c-82 -16 -218 -9 -290 16 -260
87 -419 344 -380 612 30 205 174 378 378 450 64 24 212 31 292 16 l42 -9 0
171 0 171 -169 0 -169 0 -23 -97z"/>
<path d="M2080 3200 l0 -400 384 0 384 0 18 53 c65 200 227 411 415 543 l79
56 0 74 0 74 -640 0 -640 0 0 -400z"/>
<path d="M3753 3425 c-201 -36 -365 -124 -513 -274 -95 -96 -163 -198 -209
-312 -53 -133 -65 -199 -65 -359 0 -159 13 -228 66 -358 l31 -74 29 54 c69
126 142 169 401 234 103 25 187 50 187 53 0 4 -21 29 -46 56 -26 26 -60 78
-78 114 -31 66 -31 66 -31 236 l0 170 36 75 c45 92 111 160 199 203 59 29 73
32 160 32 91 0 100 -2 172 -37 91 -45 147 -103 191 -196 30 -63 32 -75 35
-206 6 -205 -20 -295 -113 -393 -25 -26 -45 -50 -45 -54 0 -3 84 -28 187 -53
259 -65 332 -108 401 -234 l29 -54 31 74 c53 130 66 199 66 358 0 160 -12 226
-65 359 -70 177 -224 358 -388 459 -196 120 -445 168 -668 127z"/>
<path d="M1026 3109 c-63 -15 -153 -69 -197 -116 -22 -24 -55 -74 -72 -111
-29 -61 -32 -76 -32 -163 0 -90 2 -99 37 -171 45 -91 103 -148 196 -191 58
-27 78 -31 152 -32 47 0 104 6 128 13 l42 13 0 369 0 369 -37 11 c-53 16 -170
21 -217 9z"/>
<path d="M3824 3096 c-62 -29 -110 -84 -129 -150 -18 -60 -20 -242 -4 -297 15
-48 60 -103 111 -135 l39 -25 -3 -116 -3 -116 -248 -63 c-262 -66 -289 -78
-340 -147 -33 -44 -47 -90 -47 -152 0 -52 1 -54 63 -111 376 -353 943 -350
1320 5 55 52 57 56 57 106 0 62 -14 109 -47 152 -51 69 -78 81 -340 147 l-248
63 -3 115 -3 116 33 20 c48 30 84 71 107 122 17 37 21 66 21 164 0 151 -11
188 -75 251 -77 78 -166 95 -261 51z"/>
<path d="M800 1507 c-19 -6 -58 -34 -85 -62 -71 -70 -91 -146 -63 -237 14 -48
76 -121 118 -138 l30 -12 0 -329 0 -329 80 0 80 0 0 329 0 329 30 12 c42 17
104 90 118 138 26 86 8 162 -55 232 -65 72 -158 97 -253 67z"/>
<path d="M1440 584 c0 -78 5 -154 12 -178 16 -55 99 -138 154 -154 60 -17
2168 -17 2228 0 55 16 138 99 154 154 7 24 12 100 12 178 l0 136 -1280 0
-1280 0 0 -136z m480 -104 l0 -80 -80 0 -80 0 0 80 0 80 80 0 80 0 0 -80z
m1120 0 l0 -80 -320 0 -320 0 0 80 0 80 320 0 320 0 0 -80z m640 0 l0 -80 -80
0 -80 0 0 80 0 80 80 0 80 0 0 -80z"/>
<path d="M800 160 l0 -80 80 0 80 0 0 80 0 80 -80 0 -80 0 0 -80z"/>
</g>
</svg>
