<?xml version="1.0" standalone="no"?>
<!DOCTYPE svg PUBLIC "-//W3C//DTD SVG 20010904//EN"
 "http://www.w3.org/TR/2001/REC-SVG-20010904/DTD/svg10.dtd">
<svg version="1.0" xmlns="http://www.w3.org/2000/svg"
 width="512.000000pt" height="512.000000pt" viewBox="0 0 512.000000 512.000000"
 preserveAspectRatio="xMidYMid meet">

<g transform="translate(0.000000,512.000000) scale(0.100000,-0.100000)"
fill="#000000" stroke="none">
<path d="M545 4836 c-234 -43 -434 -219 -512 -450 l-28 -81 0 -1250 0 -1250
23 -75 c13 -41 40 -104 59 -140 64 -115 239 -268 328 -286 43 -8 85 26 85 70
0 38 -18 57 -104 107 -151 89 -245 263 -246 457 l0 72 2410 0 2410 0 0 -72 c0
-152 -52 -280 -155 -384 -69 -70 -175 -126 -269 -143 -41 -8 -638 -11 -1926
-11 -2033 0 -1899 4 -1914 -55 -7 -29 15 -79 39 -89 9 -3 259 -6 556 -6 296 0
539 -2 539 -5 0 -3 -13 -96 -30 -207 -17 -110 -30 -204 -30 -208 0 -4 -24 -10
-53 -13 -93 -11 -147 -36 -208 -96 -72 -72 -103 -145 -104 -248 0 -63 3 -76
30 -114 17 -23 48 -52 70 -63 40 -21 45 -21 1045 -21 1000 0 1005 0 1045 21
22 11 54 40 70 63 27 38 30 50 29 114 -1 104 -31 177 -103 248 -61 60 -115 85
-208 96 -29 3 -53 9 -53 13 0 4 -14 98 -30 208 -17 111 -30 203 -30 206 0 3
291 6 648 8 l647 3 84 29 c210 74 367 235 433 446 l23 75 0 1250 0 1250 -27
81 c-81 238 -291 416 -535 453 -42 6 -222 11 -431 11 -348 0 -360 -1 -386 -21
-33 -26 -36 -79 -5 -108 21 -19 39 -20 423 -23 385 -4 403 -5 460 -26 176 -66
300 -202 341 -373 13 -55 15 -211 15 -1101 l0 -1038 -130 0 -130 0 -2 1023 -3
1022 -27 50 c-36 70 -112 137 -181 164 l-58 21 -1879 0 -1879 0 -58 -21 c-69
-27 -145 -94 -181 -164 l-27 -50 -3 -1022 -2 -1023 -130 0 -130 0 0 1038 c0
1143 -2 1105 63 1226 59 111 162 199 293 248 l59 23 1437 3 1437 2 20 27 c26
32 27 64 2 94 l-19 24 -1414 2 c-1110 1 -1428 -1 -1483 -11z m1935 -1611 l0
-1065 -960 0 -960 0 0 995 c0 1071 -2 1033 51 1082 61 56 9 53 977 53 l892 0
0 -1065z m2007 1029 c79 -63 73 22 73 -1096 l0 -998 -960 0 -960 0 0 1065 0
1065 904 -2 904 -3 39 -31z m-1333 -3191 c16 -104 30 -200 33 -215 l6 -28
-633 0 -632 0 5 28 c3 15 17 111 33 215 l27 187 567 0 567 0 27 -187z m271
-404 c54 -15 109 -74 124 -132 15 -60 14 -73 -5 -91 -14 -14 -117 -16 -984
-16 -867 0 -970 2 -984 16 -19 18 -20 31 -5 89 14 57 63 112 114 130 33 12
184 14 870 15 576 0 842 -3 870 -11z"/>
<path d="M1643 3758 c-19 -23 -373 -981 -373 -1013 0 -9 11 -27 25 -40 31 -32
75 -33 102 -2 20 22 373 979 373 1011 0 9 -11 28 -25 41 -31 32 -75 33 -102 3z"/>
<path d="M983 3437 c-157 -157 -173 -176 -173 -207 0 -31 16 -50 173 -207 159
-159 175 -173 208 -173 44 0 72 28 72 71 0 26 -21 51 -139 170 l-139 139 139
139 c118 119 139 144 139 170 0 43 -28 71 -72 71 -33 0 -49 -14 -208 -173z"/>
<path d="M1796 3591 c-10 -10 -18 -33 -18 -51 -1 -28 16 -48 138 -171 l139
-139 -139 -139 c-122 -123 -139 -143 -138 -171 1 -44 27 -70 71 -70 33 0 49
14 208 173 157 157 173 176 173 207 0 31 -16 50 -173 207 -159 159 -175 173
-208 173 -23 0 -42 -7 -53 -19z"/>
<path d="M2960 3820 c-25 -25 -26 -71 -1 -101 19 -23 23 -24 186 -24 l167 0
24 28 c29 34 30 56 3 91 l-20 26 -170 0 c-156 0 -171 -2 -189 -20z"/>
<path d="M3500 3820 c-25 -25 -26 -71 -1 -101 19 -24 21 -24 221 -24 200 0
202 0 221 24 25 30 24 76 -1 101 -19 19 -33 20 -220 20 -187 0 -201 -1 -220
-20z"/>
<path d="M2962 3547 c-31 -33 -29 -80 4 -106 26 -20 38 -21 344 -21 353 0 353
0 366 67 5 26 1 37 -19 57 l-26 26 -324 0 -324 0 -21 -23z"/>
<path d="M3822 3547 c-31 -33 -29 -80 4 -106 25 -19 40 -21 204 -21 164 0 179
2 204 21 34 27 36 77 3 107 -22 21 -32 22 -208 22 -181 0 -186 -1 -207 -23z"/>
<path d="M2966 3279 c-34 -27 -36 -77 -3 -107 22 -21 33 -22 176 -22 148 0
153 1 176 25 14 13 25 36 25 50 0 14 -11 37 -25 50 -23 24 -28 25 -173 25
-136 0 -152 -2 -176 -21z"/>
<path d="M3485 3275 c-32 -31 -33 -74 -2 -103 23 -22 29 -22 326 -22 l302 0
24 25 c14 13 25 36 25 50 0 14 -11 37 -25 50 l-24 25 -301 0 -301 0 -24 -25z"/>
<path d="M2983 3020 c-44 -18 -57 -86 -23 -120 19 -19 33 -20 358 -20 316 0
340 1 355 18 24 27 22 85 -4 108 -20 18 -42 19 -343 21 -176 1 -331 -2 -343
-7z"/>
<path d="M3865 3021 c-49 -21 -64 -83 -30 -121 17 -19 30 -20 202 -20 170 0
184 1 203 20 25 25 26 71 1 101 -19 23 -24 24 -188 26 -92 1 -177 -1 -188 -6z"/>
<path d="M2960 2730 c-25 -25 -26 -71 -1 -101 18 -23 25 -24 171 -27 166 -4
200 3 219 44 16 35 14 48 -10 78 l-20 26 -170 0 c-156 0 -171 -2 -189 -20z"/>
<path d="M3500 2730 c-25 -25 -26 -71 -1 -101 19 -24 23 -24 222 -27 218 -3
248 2 268 44 16 35 14 48 -10 78 l-20 26 -220 0 c-206 0 -220 -1 -239 -20z"/>
</g>
</svg>
